<svg id="Layer_1" enable-background="new 0 0 512 512" height="512" viewBox="0 0 512 512" width="512" xmlns="http://www.w3.org/2000/svg"><g><path d="m435.19 179.19c0 27.8-6.57 55.59-19 80.36-11.84 23.59-29.04 44.55-49.88 60.85v23.75c0 4.14-3.36 7.5-7.5 7.5h-205.62c-4.14 0-7.5-3.36-7.5-7.5v-23.75c-20.84-16.3-38.04-37.26-49.88-60.85-12.43-24.77-19-52.56-19-80.36 0-92.91 71.07-169.52 161.69-178.34 5.76-.56 11.6-.85 17.5-.85 98.81 0 179.19 80.38 179.19 179.19z" fill="#f9f05a"/><path d="m435.19 179.19c0 27.8-6.57 55.59-19 80.36-11.84 23.59-29.04 44.55-49.88 60.85v23.75c0 4.14-3.36 7.5-7.5 7.5h-35c4.14 0 7.5-3.36 7.5-7.5v-23.75c20.84-16.3 38.04-37.26 49.88-60.85 12.43-24.77 19-52.56 19-80.36 0-92.91-71.06-169.52-161.69-178.34 5.76-.56 11.6-.85 17.5-.85 98.81 0 179.19 80.38 179.19 179.19z" fill="#ffc047"/><path d="m342.73 415.77-7.16 32.35c-4 18.05-14.14 34.36-28.55 45.93-14.42 11.58-32.53 17.95-51.02 17.95-5.05 0-10.07-.47-15-1.4-13.11-2.47-25.54-8.13-36.02-16.55-14.41-11.57-24.55-27.88-28.55-45.93l-7.16-32.35c-.49-2.22.05-4.55 1.48-6.32 1.42-1.77 3.57-2.8 5.84-2.8h158.82c2.27 0 4.42 1.03 5.84 2.8 1.43 1.77 1.97 4.1 1.48 6.32z" fill="#d7f4ff"/><path d="m341.25 409.45c1.43 1.77 1.97 4.1 1.48 6.32l-7.16 32.35c-4 18.05-14.14 34.36-28.55 45.93-14.42 11.58-32.53 17.95-51.02 17.95-5.05 0-10.07-.47-15-1.4 13.11-2.47 25.54-8.13 36.02-16.55 14.41-11.57 24.55-27.88 28.55-45.93l7.16-32.35c.49-2.22-.05-4.55-1.48-6.32-1.42-1.77-3.57-2.8-5.84-2.8h30c2.27 0 4.42 1.03 5.84 2.8z" fill="#bbdaea"/><path d="m356.307 336.645h-200.614c-13.785 0-25 11.215-25 25s11.215 25 25 25h200.613c13.785 0 25-11.215 25-25s-11.214-25-24.999-25z" fill="#b3c8dd"/><path d="m346.307 386.645h-180.614c-13.785 0-25 11.215-25 25s11.215 25 25 25h180.613c13.785 0 25-11.215 25-25s-11.214-25-24.999-25z" fill="#8aa5bc"/><g><path d="m386.75 175.828c0 2.58-.08 5.15-.23 7.69-.62 10.74-2.55 21.13-5.62 31.02-16.54 53.26-66.27 92.04-124.9 92.04-5.06 0-10.05-.29-14.96-.85 0 0 0 0-.01 0-.6-.07-1.19-.14-1.79-.22-24.64-3.17-47.16-13.22-65.55-28.16-29.54-23.99-48.44-60.59-48.44-101.52 0-19.71 4.38-38.42 12.23-55.21 10.01-21.4 25.65-39.67 45.01-52.87 17.07-11.66 37.04-19.37 58.57-21.83 4.9-.56 9.89-.85 14.94-.85 72.1 0 130.75 58.66 130.75 130.76z" fill="#0acffb"/><g fill="#c6ed66"><path d="m386.75 175.828c0 2.58-.08 5.15-.23 7.69l-30.1-17.5-12.02-6.98c-3.51-2.05-7.87-2.12-11.42-.19l-32.98 17.949c-7.13 3.88-15.52 4.3-23 1.16-7.49-3.15-13.06-9.43-15.28-17.24l-8.5-29.9c-1.56-5.49-6.8-8.99-12.47-8.34l-16.63 1.92c-12.13 1.41-23.61-5.6-27.92-17.03-.03-.07-.05-.13-.07-.2l-13.64-39.42c17.07-11.66 37.04-19.37 58.57-21.83 4.9-.56 9.89-.85 14.94-.85 72.1.001 130.75 58.661 130.75 130.761z"/><path d="m198.4 250.728-24.71 26.62c-29.54-23.99-48.44-60.59-48.44-101.52 0-19.71 4.38-38.42 12.23-55.21l26.47 12.38c10.38 4.73 17.82 13.88 20.34 25.08 2.42 10.77-.08 21.77-6.85 30.4l10.12 4.92c10.44 5.08 17.67 14.53 19.82 25.94 2.16 11.41-1.11 22.85-8.98 31.39z"/><path d="m380.9 214.537c-16.54 53.26-66.27 92.04-124.9 92.04-5.06 0-10.05-.29-14.96-.85 0 0 0 0-.01 0-.6-.07-1.19-.14-1.79-.22l12.86-39.4c2.85-8.75 9.82-15.56 18.64-18.21 8.83-2.65 18.4-.8 25.61 4.94 4.2 3.36 10.14 3.79 14.78 1.07.04-.02.07-.04.11-.06l30.58-17.26z"/></g><path d="m386.75 175.828c0 2.58-.08 5.15-.23 7.69-.62 10.74-2.55 21.13-5.62 31.02-16.54 53.26-66.27 92.04-124.9 92.04-5.06 0-10.05-.29-14.96-.85 65.14-7.46 115.74-62.77 115.74-129.91 0-67.12-50.59-122.43-115.72-129.9 4.9-.56 9.89-.85 14.94-.85 72.1 0 130.75 58.66 130.75 130.76z" fill="#62b5ff"/><path d="m341.82 236.588 39.08-22.05c-16.54 53.26-66.27 92.04-124.9 92.04-5.06 0-10.05-.29-14.96-.85 43.85-5.02 81.12-31.73 100.78-69.14z" fill="#a7d613"/><path d="m386.75 175.828c0 2.58-.08 5.15-.23 7.69l-30.1-17.5c-4.64-62.64-53.43-113-115.36-120.1 4.9-.56 9.89-.85 14.94-.85 72.1 0 130.75 58.66 130.75 130.76z" fill="#a7d613"/></g></g></svg>