<svg id="Layer_1" enable-background="new 0 0 512 512" height="512" viewBox="0 0 512 512" width="512" xmlns="http://www.w3.org/2000/svg"><g><g><path d="m182.969 226.494c-5.184 0-10.226-2.689-13.004-7.502-4.143-7.175-1.685-16.349 5.49-20.49l133.849-77.277c7.174-4.143 16.349-1.686 20.49 5.49 4.143 7.175 1.684 16.349-5.49 20.49l-133.849 77.277c-2.362 1.365-4.941 2.012-7.486 2.012z" fill="#00429d"/></g><g><path d="m320.902 396.162c-2.545 0-5.124-.648-7.486-2.013l-137.961-79.651c-7.175-4.142-9.633-13.315-5.49-20.49 4.143-7.174 13.314-9.634 20.49-5.49l137.961 79.651c7.175 4.142 9.633 13.315 5.49 20.49-2.778 4.812-7.82 7.503-13.004 7.503z" fill="#00429d"/></g><g><path d="m101.255 329.856c-28.949 0-51.454 19.868-70.467.855s-30.788-45.262-30.788-74.211c0-57.897 47.103-105 105-105s105 47.103 105 105c0 28.785-11.643 54.901-30.466 73.888-19.038 19.203-49.166-.532-78.279-.532z" fill="#fff4f4"/></g><path d="m105 151.5v178.463c27.928 1.515 56.312 18.806 74.535.425 18.822-18.987 30.465-45.103 30.465-73.888 0-57.897-47.103-105-105-105z" fill="#f6efea"/><path clip-rule="evenodd" d="m105 279.303c-33.966 0-62.962 21.2-74.531 51.081 19.038 19.203 45.418 31.116 74.531 31.116s55.493-11.913 74.531-31.116c-11.569-29.881-40.565-51.081-74.531-51.081z" fill="#7dd5f4" fill-rule="evenodd"/><path clip-rule="evenodd" d="m105 279.303v82.197c29.113 0 55.493-11.913 74.531-31.116-11.569-29.881-40.565-51.081-74.531-51.081z" fill="#4793ff" fill-rule="evenodd"/><g><path d="m105 301.5c-24.813 0-45-20.187-45-45s20.187-45 45-45 45 20.187 45 45-20.187 45-45 45z" fill="#ffdecf"/></g><path d="m105 211.5v90c24.813 0 45-20.187 45-45s-20.187-45-45-45z" fill="#ffcdbe"/><g><path d="m403.255 178.857c-28.949 0-51.454 19.868-70.467.855s-30.788-45.263-30.788-74.212c0-57.897 47.103-105 105-105s105 47.103 105 105c0 28.785-11.643 54.901-30.466 73.888-19.038 19.203-49.166-.531-78.279-.531z" fill="#fff4f4"/></g><path d="m407 .5v178.463c27.928 1.515 56.312 18.806 74.535.425 18.823-18.987 30.465-45.103 30.465-73.888 0-57.897-47.102-105-105-105z" fill="#f6efea"/><path clip-rule="evenodd" d="m407 128.303c-33.966 0-62.962 21.2-74.531 51.081 19.038 19.204 45.418 31.116 74.531 31.116s55.493-11.913 74.531-31.116c-11.569-29.881-40.565-51.081-74.531-51.081z" fill="#bee75e" fill-rule="evenodd"/><path clip-rule="evenodd" d="m407 128.303v82.197c29.113 0 55.493-11.913 74.531-31.116-11.569-29.881-40.565-51.081-74.531-51.081z" fill="#00cb75" fill-rule="evenodd"/><g><path d="m407 150.5c-24.813 0-45-20.187-45-45s20.187-45 45-45 45 20.187 45 45-20.187 45-45 45z" fill="#ffdecf"/></g><path d="m407 60.5v90c24.813 0 45-20.187 45-45s-20.187-45-45-45z" fill="#ffcdbe"/><g><path d="m403.255 479.856c-28.949 0-51.454 19.868-70.467.855s-30.788-45.262-30.788-74.211c0-57.897 47.103-105 105-105s105 47.103 105 105c0 28.785-11.643 54.901-30.466 73.888-19.038 19.203-49.166-.532-78.279-.532z" fill="#fff4f4"/></g><path d="m407 301.5v178.463c27.928 1.515 56.312 18.806 74.535.425 18.823-18.987 30.465-45.103 30.465-73.888 0-57.897-47.102-105-105-105z" fill="#f6efea"/><path clip-rule="evenodd" d="m407 429.303c-33.966 0-62.962 21.2-74.531 51.081 19.038 19.203 45.418 31.116 74.531 31.116s55.493-11.913 74.531-31.116c-11.569-29.881-40.565-51.081-74.531-51.081z" fill="#ff8856" fill-rule="evenodd"/><path clip-rule="evenodd" d="m407 429.303v82.197c29.113 0 55.493-11.913 74.531-31.116-11.569-29.881-40.565-51.081-74.531-51.081z" fill="#ff435b" fill-rule="evenodd"/><g><path d="m407 451.5c-24.813 0-45-20.187-45-45s20.187-45 45-45 45 20.187 45 45-20.187 45-45 45z" fill="#ffdecf"/></g><path d="m407 361.5v90c24.813 0 45-20.187 45-45s-20.187-45-45-45z" fill="#ffcdbe"/></g></svg>